<svg width="90" height="17" viewBox="0 0 90 17" version="1.1" xmlns="http://www.w3.org/2000/svg" xmlns:xlink="http://www.w3.org/1999/xlink">
<title>logo</title>
<desc>Created using Figma</desc>
<g id="Canvas" transform="translate(1435 0)">
<g id="logo">
<use xlink:href="#path0_fill" transform="translate(-1435 0)" fill="#FFFFFF"/>
<use xlink:href="#path1_fill" transform="translate(-1435 0)" fill="#FFFFFF"/>
<use xlink:href="#path2_fill" transform="translate(-1435 0)" fill="#FFFFFF"/>
</g>
</g>
<defs>
<path id="path0_fill" d="M 20.9709 12.354C 20.9709 15.199 18.6931 16.6019 14.1377 16.6019L 1.06033 16.6019C 0.353442 16.6019 0 16.2512 0 15.5107L 0 1.05224C 0 0.350746 0.353442 1.77292e-06 1.06033 1.77292e-06L 14.1377 1.77292e-06C 18.6931 1.77292e-06 20.9709 1.40298 20.9709 4.24792L 20.9709 12.354ZM 3.06316 14.1078L 14.0591 14.1078C 15.3943 14.1078 16.4154 13.9129 17.0437 13.5622C 17.6721 13.2114 17.9863 12.7827 17.9863 12.3151L 17.9863 4.24792C 17.9863 3.74129 17.6721 3.3126 17.0437 2.96185C 16.4154 2.6111 15.4336 2.45522 14.0591 2.45522L 3.06316 2.45522L 3.06316 14.1078Z"/>
<path id="path1_fill" d="M 38.7553 7.18131L 52.9923 7.18131L 52.9923 1.04245C 52.9923 0.617748 53.105 0.308873 53.3679 0.193046C 53.6309 0.0386092 53.969 0 54.4573 0C 54.9456 0 55.2837 0.0772183 55.5467 0.193046C 55.8096 0.347483 55.9223 0.617748 55.9223 1.04245L 55.9223 15.5595C 55.9223 15.9842 55.8096 16.2931 55.5467 16.4089C 55.2837 16.5633 54.9456 16.6019 54.4573 16.6019C 53.969 16.6019 53.5933 16.5247 53.3679 16.4089C 53.105 16.2545 52.9923 15.9842 52.9923 15.5595L 52.9923 9.65229L 38.7553 9.65229L 38.7553 15.5595C 38.7553 15.9842 38.6426 16.2931 38.3796 16.4089C 38.1167 16.5633 37.7786 16.6019 37.2903 16.6019C 36.8019 16.6019 36.4638 16.5247 36.2009 16.4089C 35.9379 16.2545 35.8252 15.9842 35.8252 15.5595L 35.8252 1.04245C 35.8252 0.617748 35.9379 0.308873 36.2009 0.193046C 36.4638 0.0386092 36.8019 0 37.2903 0C 37.7786 0 38.1543 0.0772183 38.3796 0.193046C 38.6426 0.347483 38.7553 0.617748 38.7553 1.04245L 38.7553 7.18131Z"/>
<path id="path2_fill" d="M 77.6733 16.5244C 73.0756 16.5244 70.7767 15.1279 70.7767 12.2963L 70.7767 4.22807C 70.7767 1.39643 73.0756 1.77014e-06 77.6733 1.77014e-06L 89.0884 1.77014e-06C 89.4451 1.77014e-06 89.7225 0.116369 89.8415 0.310317C 89.9604 0.504265 90 0.814582 90 1.24127C 90 1.66795 89.9604 1.97827 89.8415 2.17222C 89.7225 2.36617 89.4847 2.48254 89.0884 2.48254L 77.7526 2.48254C 76.3653 2.48254 75.3744 2.63769 74.7799 2.9868C 74.1457 3.3359 73.8286 3.76259 73.8286 4.26686L 73.8286 12.3351C 73.8286 12.8394 74.1457 13.2273 74.7799 13.5764C 75.4141 13.9255 76.405 14.1194 77.7526 14.1194L 89.0884 14.1194C 89.4451 14.1194 89.6829 14.2358 89.8018 14.4297C 89.9207 14.6237 89.9604 14.934 89.9604 15.3607C 89.9604 15.7486 89.9207 16.0589 89.8018 16.2916C 89.6829 16.4856 89.4451 16.6019 89.0884 16.6019L 77.6733 16.6019L 77.6733 16.5244Z"/>
</defs>
</svg>
